<svg width="28" height="20" viewBox="0 0 28 20" fill="none" xmlns="http://www.w3.org/2000/svg">
<path d="M23.264 8.81596C22.6813 4.22663 18.7507 0.666626 14.0053 0.666626C10.3307 0.666626 7.13866 2.81463 5.68133 6.19996C2.81733 7.05596 0.671997 9.75996 0.671997 12.6666C0.671997 16.3426 3.66266 19.3333 7.33866 19.3333H8.672V16.6666H7.33866C5.13333 16.6666 3.33866 14.872 3.33866 12.6666C3.33866 10.7946 4.93733 8.99063 6.90266 8.64529L7.67733 8.50929L7.93333 7.76529C8.87066 5.03063 11.1973 3.33329 14.0053 3.33329C17.6813 3.33329 20.672 6.32396 20.672 9.99996V11.3333H22.0053C23.476 11.3333 24.672 12.5293 24.672 14C24.672 15.4706 23.476 16.6666 22.0053 16.6666H19.3387V19.3333H22.0053C24.9467 19.3333 27.3387 16.9413 27.3387 14C27.3371 12.8047 26.9348 11.6444 26.1962 10.7046C25.4575 9.76486 24.4251 9.09987 23.264 8.81596Z" fill="#FAFAFA"/>
<path d="M15.3387 12.6666V7.33329H12.672V12.6666H8.672L14.0053 19.3333L19.3387 12.6666H15.3387Z" fill="#FAFAFA"/>
</svg>
